<svg xmlns="http://www.w3.org/2000/svg" xmlns:xlink="http://www.w3.org/1999/xlink" width="1080" zoomAndPan="magnify" viewBox="0 0 810 809.999993" height="1080" preserveAspectRatio="xMidYMid meet" version="1.2"><defs><clipPath id="86afb97952"><path d="M 25.890625 25.890625 L 784.109375 25.890625 L 784.109375 784.109375 L 25.890625 784.109375 Z M 25.890625 25.890625 "/></clipPath><clipPath id="34d1055213"><path d="M 405 25.890625 C 195.625 25.890625 25.890625 195.625 25.890625 405 C 25.890625 614.375 195.625 784.109375 405 784.109375 C 614.375 784.109375 784.109375 614.375 784.109375 405 C 784.109375 195.625 614.375 25.890625 405 25.890625 Z M 405 25.890625 "/></clipPath><clipPath id="845545a792"><path d="M 154.121094 552 L 655.871094 552 L 655.871094 604.960938 L 154.121094 604.960938 Z M 154.121094 552 "/></clipPath><filter x="0%" y="0%" width="100%" filterUnits="objectBoundingBox" id="2be8bc1067" height="100%"><feColorMatrix values="0 0 0 0 1 0 0 0 0 1 0 0 0 0 1 0 0 0 1 0" type="matrix" in="SourceGraphic"/></filter><clipPath id="61c946cd17"><path d="M 0.558594 0 L 501.441406 0 L 501.441406 52.960938 L 0.558594 52.960938 Z M 0.558594 0 "/></clipPath><clipPath id="41486fb227"><rect x="0" width="502" y="0" height="53"/></clipPath><clipPath id="820ad157ad"><path d="M 306 591 L 655.871094 591 L 655.871094 604.960938 L 306 604.960938 Z M 306 591 "/></clipPath><clipPath id="8e51b8430c"><path d="M 0 1 L 349 1 L 349 13.960938 L 0 13.960938 Z M 0 1 "/></clipPath><clipPath id="0aef84de85"><rect x="0" width="350" y="0" height="14"/></clipPath><clipPath id="6f97f91c98"><path d="M 154.121094 450 L 655.871094 450 L 655.871094 595 L 154.121094 595 Z M 154.121094 450 "/></clipPath><clipPath id="76947267be"><path d="M 197 205.210938 L 613 205.210938 L 613 452 L 197 452 Z M 197 205.210938 "/></clipPath><clipPath id="1ea6f26c8f"><rect x="0" width="107" y="0" height="40"/></clipPath><clipPath id="a550d595a6"><path d="M 330 46 L 422.960938 46 L 422.960938 61 L 330 61 Z M 330 46 "/></clipPath><clipPath id="394400ffdf"><rect x="0" width="423" y="0" height="62"/></clipPath><clipPath id="1845a9b5c5"><path d="M 1 2 L 313.640625 2 L 313.640625 223 L 1 223 Z M 1 2 "/></clipPath><clipPath id="87a2c9489e"><rect x="0" width="314" y="0" height="224"/></clipPath><clipPath id="dd3d04c474"><path d="M 1 0.238281 L 207 0.238281 L 207 97 L 1 97 Z M 1 0.238281 "/></clipPath><clipPath id="3a5ae5c642"><rect x="0" width="208" y="0" height="98"/></clipPath><clipPath id="6078464545"><rect x="0" width="83" y="0" height="40"/></clipPath><clipPath id="34d0ede163"><path d="M 0.121094 1 L 49 1 L 49 20 L 0.121094 20 Z M 0.121094 1 "/></clipPath><clipPath id="12585e3f45"><rect x="0" width="50" y="0" height="21"/></clipPath><clipPath id="54f16f86ff"><path d="M 0.160156 0.480469 L 120.878906 0.480469 L 120.878906 69.601562 L 0.160156 69.601562 Z M 0.160156 0.480469 "/></clipPath><clipPath id="c725122fb6"><rect x="0" width="121" y="0" height="70"/></clipPath></defs><g id="d579b88c1c"><g clip-rule="nonzero" clip-path="url(#86afb97952)"><g clip-rule="nonzero" clip-path="url(#34d1055213)"><path style=" stroke:none;fill-rule:nonzero;fill:#037f74;fill-opacity:1;" d="M 25.890625 25.890625 L 784.109375 25.890625 L 784.109375 784.109375 L 25.890625 784.109375 Z M 25.890625 25.890625 "/></g></g><g clip-rule="nonzero" clip-path="url(#845545a792)"><path style=" stroke:none;fill-rule:nonzero;fill:#b4b4b4;fill-opacity:1;" d="M 655.265625 591.484375 L 654.460938 593.023438 L 651.355469 598.863281 C 649.445312 602.464844 645.03125 604.792969 640.144531 604.792969 L 170.527344 604.792969 C 166.015625 604.792969 161.933594 602.773438 159.839844 599.574219 L 154.726562 591.484375 L 410.851562 552.367188 Z M 655.265625 591.484375 "/><g mask="url(#3bbb8bc7e7)" transform="matrix(1,0,0,1,154,552)"><g clip-path="url(#41486fb227)"><g clip-rule="nonzero" clip-path="url(#61c946cd17)"><path style=" stroke:none;fill-rule:nonzero;fill:#5d5d5d;fill-opacity:1;" d="M 501.265625 39.484375 L 500.460938 41.023438 L 497.355469 46.863281 C 495.445312 50.464844 491.03125 52.792969 486.144531 52.792969 L 16.527344 52.792969 C 12.015625 52.792969 7.933594 50.773438 5.839844 47.574219 L 0.726562 39.484375 L 256.851562 0.367188 Z M 501.265625 39.484375 "/></g></g><mask id="3bbb8bc7e7"><g filter="url(#2be8bc1067)"><rect x="0" width="810" y="0" height="809.999993" style="fill:#000000;fill-opacity:0.15;stroke:none;"/></g></mask></g></g><g clip-rule="nonzero" clip-path="url(#820ad157ad)"><g mask="url(#9d6688fa83)" transform="matrix(1,0,0,1,306,591)"><g clip-path="url(#0aef84de85)"><g clip-rule="nonzero" clip-path="url(#8e51b8430c)"><path style=" stroke:none;fill-rule:nonzero;fill:#5d5d5d;fill-opacity:1;" d="M 348.40625 2.023438 L 345.304688 7.863281 C 343.390625 11.464844 338.976562 13.792969 334.089844 13.792969 L 0.863281 13.792969 C 104.957031 7.984375 210.855469 11.558594 315.582031 7.347656 C 326.945312 6.898438 339.480469 6.027344 347.054688 1.257812 Z M 348.40625 2.023438 "/></g></g><mask id="9d6688fa83"><g filter="url(#2be8bc1067)"><rect x="0" width="810" y="0" height="809.999993" style="fill:#000000;fill-opacity:0.15;stroke:none;"/></g></mask></g></g><g clip-rule="nonzero" clip-path="url(#6f97f91c98)"><path style=" stroke:none;fill-rule:nonzero;fill:#b4b4b4;fill-opacity:1;" d="M 651.679688 594.042969 L 158.3125 594.042969 C 158.023438 594.042969 157.738281 594.007812 157.457031 593.941406 C 157.175781 593.875 156.90625 593.777344 156.648438 593.648438 C 156.390625 593.515625 156.148438 593.359375 155.929688 593.171875 C 155.707031 592.984375 155.511719 592.777344 155.339844 592.542969 C 155.167969 592.3125 155.027344 592.0625 154.914062 591.796875 C 154.796875 591.53125 154.71875 591.253906 154.667969 590.96875 C 154.621094 590.683594 154.605469 590.398438 154.625 590.109375 C 154.640625 589.820312 154.695312 589.539062 154.777344 589.261719 L 196.808594 453.558594 C 196.925781 453.179688 197.097656 452.832031 197.328125 452.511719 C 197.558594 452.1875 197.832031 451.910156 198.148438 451.675781 C 198.46875 451.441406 198.8125 451.265625 199.1875 451.140625 C 199.5625 451.019531 199.949219 450.957031 200.34375 450.957031 L 609.648438 450.957031 C 610.042969 450.957031 610.429688 451.019531 610.804688 451.140625 C 611.179688 451.265625 611.527344 451.441406 611.84375 451.675781 C 612.160156 451.910156 612.433594 452.1875 612.664062 452.511719 C 612.894531 452.832031 613.066406 453.179688 613.183594 453.558594 L 655.265625 589.285156 C 655.351562 589.5625 655.402344 589.84375 655.417969 590.136719 C 655.433594 590.425781 655.417969 590.710938 655.367188 591 C 655.316406 591.285156 655.230469 591.558594 655.113281 591.824219 C 655 592.089844 654.855469 592.339844 654.679688 592.570312 C 654.503906 592.804688 654.304688 593.011719 654.082031 593.195312 C 653.859375 593.382812 653.617188 593.539062 653.355469 593.664062 C 653.09375 593.792969 652.824219 593.890625 652.539062 593.953125 C 652.257812 594.015625 651.96875 594.046875 651.679688 594.042969 Z M 651.679688 594.042969 "/></g><g clip-rule="nonzero" clip-path="url(#76947267be)"><path style=" stroke:none;fill-rule:nonzero;fill:#5d5d5d;fill-opacity:1;" d="M 203.382812 205.199219 L 606.609375 205.199219 C 606.988281 205.199219 607.363281 205.234375 607.734375 205.308594 C 608.105469 205.382812 608.464844 205.492188 608.816406 205.636719 C 609.167969 205.78125 609.5 205.960938 609.8125 206.171875 C 610.128906 206.382812 610.421875 206.621094 610.6875 206.886719 C 610.957031 207.15625 611.195312 207.445312 611.40625 207.761719 C 611.617188 208.078125 611.792969 208.410156 611.9375 208.757812 C 612.082031 209.109375 612.191406 209.46875 612.265625 209.839844 C 612.339844 210.210938 612.378906 210.585938 612.378906 210.964844 L 612.378906 445.480469 C 612.378906 445.859375 612.339844 446.234375 612.265625 446.605469 C 612.191406 446.976562 612.082031 447.335938 611.9375 447.6875 C 611.792969 448.039062 611.617188 448.371094 611.40625 448.683594 C 611.195312 449 610.957031 449.289062 610.6875 449.558594 C 610.421875 449.828125 610.128906 450.066406 609.8125 450.277344 C 609.5 450.488281 609.167969 450.664062 608.816406 450.808594 C 608.464844 450.953125 608.105469 451.0625 607.734375 451.136719 C 607.363281 451.210938 606.988281 451.25 606.609375 451.25 L 203.382812 451.25 C 203.003906 451.25 202.628906 451.210938 202.257812 451.136719 C 201.886719 451.0625 201.527344 450.953125 201.175781 450.808594 C 200.824219 450.664062 200.492188 450.488281 200.179688 450.277344 C 199.863281 450.066406 199.574219 449.828125 199.304688 449.558594 C 199.035156 449.289062 198.796875 449 198.585938 448.683594 C 198.375 448.371094 198.199219 448.039062 198.054688 447.6875 C 197.910156 447.335938 197.800781 446.976562 197.726562 446.605469 C 197.652344 446.234375 197.613281 445.859375 197.613281 445.480469 L 197.613281 210.964844 C 197.613281 210.585938 197.652344 210.210938 197.726562 209.839844 C 197.800781 209.46875 197.910156 209.109375 198.054688 208.757812 C 198.199219 208.410156 198.375 208.078125 198.585938 207.761719 C 198.796875 207.445312 199.035156 207.15625 199.304688 206.886719 C 199.574219 206.621094 199.863281 206.382812 200.179688 206.171875 C 200.492188 205.960938 200.824219 205.78125 201.175781 205.636719 C 201.527344 205.492188 201.886719 205.382812 202.257812 205.308594 C 202.628906 205.234375 203.003906 205.199219 203.382812 205.199219 Z M 203.382812 205.199219 "/></g><path style=" stroke:none;fill-rule:nonzero;fill:#9bd4e4;fill-opacity:1;" d="M 211.632812 218.089844 L 598.359375 218.089844 C 598.855469 218.089844 599.328125 218.183594 599.785156 218.371094 C 600.242188 218.5625 600.644531 218.832031 600.996094 219.179688 C 601.34375 219.527344 601.613281 219.933594 601.804688 220.390625 C 601.992188 220.84375 602.085938 221.320312 602.085938 221.816406 L 602.085938 434.621094 C 602.085938 435.113281 601.992188 435.589844 601.804688 436.046875 C 601.613281 436.503906 601.34375 436.90625 600.996094 437.257812 C 600.644531 437.605469 600.242188 437.875 599.785156 438.0625 C 599.328125 438.253906 598.855469 438.347656 598.359375 438.347656 L 211.632812 438.347656 C 211.136719 438.347656 210.664062 438.253906 210.207031 438.0625 C 209.75 437.875 209.347656 437.605469 208.996094 437.257812 C 208.648438 436.90625 208.378906 436.503906 208.1875 436.046875 C 208 435.589844 207.90625 435.113281 207.90625 434.621094 L 207.90625 221.816406 C 207.90625 221.320312 208 220.84375 208.1875 220.390625 C 208.378906 219.933594 208.648438 219.527344 208.996094 219.179688 C 209.347656 218.832031 209.75 218.5625 210.207031 218.371094 C 210.664062 218.183594 211.136719 218.089844 211.632812 218.089844 Z M 211.632812 218.089844 "/><g mask="url(#ed48786b01)" transform="matrix(1,0,0,1,344,544)"><g clip-path="url(#1ea6f26c8f)"><path style=" stroke:none;fill-rule:nonzero;fill:#5d5d5d;fill-opacity:1;" d="M 101.371094 38.730469 L 5.839844 38.730469 C 3.402344 38.730469 1.542969 36.917969 1.972656 34.929688 L 8.417969 4.082031 C 8.539062 3.671875 8.726562 3.292969 8.976562 2.945312 C 9.226562 2.601562 9.523438 2.304688 9.875 2.058594 C 10.226562 1.816406 10.605469 1.632812 11.015625 1.519531 C 11.429688 1.402344 11.847656 1.359375 12.273438 1.382812 L 94.894531 1.382812 C 95.191406 1.386719 95.484375 1.414062 95.777344 1.46875 C 96.488281 1.566406 97.117188 1.855469 97.65625 2.328125 C 98.195312 2.800781 98.5625 3.386719 98.75 4.082031 L 105.195312 34.929688 C 105.648438 36.917969 103.8125 38.730469 101.371094 38.730469 Z M 101.371094 38.730469 "/></g><mask id="ed48786b01"><g filter="url(#2be8bc1067)"><rect x="0" width="810" y="0" height="809.999993" style="fill:#000000;fill-opacity:0.7;stroke:none;"/></g></mask></g><path style=" stroke:none;fill-rule:nonzero;fill:#5d5d5d;fill-opacity:1;" d="M 334.050781 503.664062 L 362.621094 503.664062 L 362.621094 516.792969 L 334.050781 516.792969 Z M 334.050781 503.664062 "/><path style=" stroke:none;fill-rule:nonzero;fill:#5d5d5d;fill-opacity:1;" d="M 451.773438 474.738281 L 413.042969 474.738281 L 413.042969 484.738281 L 451.773438 484.738281 Z M 451.773438 474.738281 "/><path style=" stroke:none;fill-rule:nonzero;fill:#5d5d5d;fill-opacity:1;" d="M 430.3125 488.605469 L 458.886719 488.605469 L 458.886719 499.808594 L 430.3125 499.808594 Z M 430.3125 488.605469 "/><path style=" stroke:none;fill-rule:nonzero;fill:#5d5d5d;fill-opacity:1;" d="M 462.398438 488.605469 L 490.96875 488.605469 L 490.96875 499.808594 L 462.398438 499.808594 Z M 462.398438 488.605469 "/><path style=" stroke:none;fill-rule:nonzero;fill:#5d5d5d;fill-opacity:1;" d="M 462.398438 503.664062 L 490.96875 503.664062 L 490.96875 516.792969 L 462.398438 516.792969 Z M 462.398438 503.664062 "/><path style=" stroke:none;fill-rule:nonzero;fill:#5d5d5d;fill-opacity:1;" d="M 408.273438 474.738281 L 369.550781 474.738281 L 369.550781 484.738281 L 408.28125 484.738281 Z M 408.273438 474.738281 "/><path style=" stroke:none;fill-rule:nonzero;fill:#5d5d5d;fill-opacity:1;" d="M 366.132812 488.605469 L 394.707031 488.605469 L 394.707031 499.808594 L 366.132812 499.808594 Z M 366.132812 488.605469 "/><path style=" stroke:none;fill-rule:nonzero;fill:#5d5d5d;fill-opacity:1;" d="M 366.132812 503.664062 L 394.707031 503.664062 L 394.707031 516.792969 L 366.132812 516.792969 Z M 366.132812 503.664062 "/><path style=" stroke:none;fill-rule:nonzero;fill:#5d5d5d;fill-opacity:1;" d="M 398.230469 503.664062 L 426.800781 503.664062 L 426.800781 516.792969 L 398.230469 516.792969 Z M 398.230469 503.664062 "/><path style=" stroke:none;fill-rule:nonzero;fill:#5d5d5d;fill-opacity:1;" d="M 398.230469 488.605469 L 426.800781 488.605469 L 426.800781 499.808594 L 398.230469 499.808594 Z M 398.230469 488.605469 "/><path style=" stroke:none;fill-rule:nonzero;fill:#5d5d5d;fill-opacity:1;" d="M 495.222656 474.738281 L 456.554688 474.738281 L 456.554688 484.738281 L 495.222656 484.738281 Z M 495.222656 474.738281 "/><path style=" stroke:none;fill-rule:nonzero;fill:#5d5d5d;fill-opacity:1;" d="M 430.3125 503.664062 L 458.886719 503.664062 L 458.886719 516.792969 L 430.3125 516.792969 Z M 430.3125 503.664062 "/><path style=" stroke:none;fill-rule:nonzero;fill:#5d5d5d;fill-opacity:1;" d="M 494.492188 516.800781 L 555.148438 516.800781 L 555.148438 488.605469 L 526.578125 488.605469 L 526.578125 503.664062 L 494.492188 503.664062 Z M 494.492188 516.800781 "/><path style=" stroke:none;fill-rule:nonzero;fill:#5d5d5d;fill-opacity:1;" d="M 234.273438 488.605469 L 210.171875 488.605469 C 209.097656 492.335938 208.058594 496.070312 207.054688 499.808594 L 234.273438 499.808594 Z M 234.273438 488.605469 "/><path style=" stroke:none;fill-rule:nonzero;fill:#5d5d5d;fill-opacity:1;" d="M 590.753906 499.808594 L 608.90625 499.808594 C 607.882812 496.09375 606.859375 492.359375 605.835938 488.605469 L 590.796875 488.605469 Z M 590.753906 499.808594 "/><path style=" stroke:none;fill-rule:nonzero;fill:#5d5d5d;fill-opacity:1;" d="M 582.226562 474.738281 L 543.558594 474.738281 L 543.558594 484.738281 L 582.226562 484.738281 Z M 582.226562 474.738281 "/><path style=" stroke:none;fill-rule:nonzero;fill:#5d5d5d;fill-opacity:1;" d="M 602.042969 474.738281 L 587.007812 474.738281 L 587.007812 484.738281 L 604.785156 484.738281 C 603.859375 481.410156 602.945312 478.035156 602.042969 474.738281 Z M 602.042969 474.738281 "/><path style=" stroke:none;fill-rule:nonzero;fill:#5d5d5d;fill-opacity:1;" d="M 494.492188 488.605469 L 523.0625 488.605469 L 523.0625 499.808594 L 494.492188 499.808594 Z M 494.492188 488.605469 "/><path style=" stroke:none;fill-rule:nonzero;fill:#5d5d5d;fill-opacity:1;" d="M 538.769531 474.738281 L 500.035156 474.738281 L 500.035156 484.738281 L 538.769531 484.738281 Z M 538.769531 474.738281 "/><path style=" stroke:none;fill-rule:nonzero;fill:#5d5d5d;fill-opacity:1;" d="M 590.753906 503.664062 L 558.660156 503.664062 L 558.660156 516.800781 L 613.503906 516.800781 C 612.355469 512.503906 611.164062 508.089844 609.960938 503.664062 Z M 590.753906 503.664062 "/><path style=" stroke:none;fill-rule:nonzero;fill:#5d5d5d;fill-opacity:1;" d="M 334.050781 488.605469 L 362.621094 488.605469 L 362.621094 499.808594 L 334.050781 499.808594 Z M 334.050781 488.605469 "/><path style=" stroke:none;fill-rule:nonzero;fill:#5d5d5d;fill-opacity:1;" d="M 494.492188 534.652344 L 523.0625 534.652344 L 523.0625 520.691406 L 494.492188 520.691406 Z M 494.492188 534.652344 "/><path style=" stroke:none;fill-rule:nonzero;fill:#5d5d5d;fill-opacity:1;" d="M 334.105469 534.652344 L 362.675781 534.652344 L 362.675781 520.691406 L 334.105469 520.691406 Z M 334.105469 534.652344 "/><path style=" stroke:none;fill-rule:nonzero;fill:#5d5d5d;fill-opacity:1;" d="M 418.746094 520.65625 L 366.113281 520.65625 L 366.113281 534.621094 L 458.863281 534.621094 L 458.863281 520.65625 Z M 418.746094 520.65625 "/><path style=" stroke:none;fill-rule:nonzero;fill:#5d5d5d;fill-opacity:1;" d="M 462.398438 534.652344 L 490.925781 534.652344 L 490.925781 520.691406 L 462.355469 520.691406 Z M 462.398438 534.652344 "/><path style=" stroke:none;fill-rule:nonzero;fill:#5d5d5d;fill-opacity:1;" d="M 614.527344 520.65625 L 526.578125 520.65625 L 526.578125 534.621094 L 618.113281 534.621094 C 616.988281 530.082031 615.792969 525.425781 614.527344 520.65625 Z M 614.527344 520.65625 "/><path style=" stroke:none;fill-rule:nonzero;fill:#5d5d5d;fill-opacity:1;" d="M 234.273438 516.800781 L 266.359375 516.800781 L 266.359375 503.664062 L 206.015625 503.664062 C 204.824219 508.101562 203.664062 512.496094 202.511719 516.800781 Z M 234.273438 516.800781 "/><path style=" stroke:none;fill-rule:nonzero;fill:#5d5d5d;fill-opacity:1;" d="M 234.273438 474.738281 L 214.351562 474.738281 C 213.277344 478.027344 212.277344 481.378906 211.289062 484.738281 L 234.273438 484.738281 Z M 234.273438 474.738281 "/><path style=" stroke:none;fill-rule:nonzero;fill:#5d5d5d;fill-opacity:1;" d="M 558.660156 488.605469 L 587.230469 488.605469 L 587.230469 499.808594 L 558.660156 499.808594 Z M 558.660156 488.605469 "/><path style=" stroke:none;fill-rule:nonzero;fill:#5d5d5d;fill-opacity:1;" d="M 321.269531 474.738281 L 282.546875 474.738281 L 282.546875 484.738281 L 321.277344 484.738281 Z M 321.269531 474.738281 "/><path style=" stroke:none;fill-rule:nonzero;fill:#5d5d5d;fill-opacity:1;" d="M 269.882812 488.605469 L 298.453125 488.605469 L 298.453125 499.808594 L 269.882812 499.808594 Z M 269.882812 488.605469 "/><path style=" stroke:none;fill-rule:nonzero;fill:#5d5d5d;fill-opacity:1;" d="M 326.039062 484.738281 L 364.769531 484.738281 L 364.769531 474.738281 L 326.039062 474.738281 Z M 326.039062 484.738281 "/><path style=" stroke:none;fill-rule:nonzero;fill:#5d5d5d;fill-opacity:1;" d="M 301.964844 503.664062 L 330.539062 503.664062 L 330.539062 516.792969 L 301.964844 516.792969 Z M 301.964844 503.664062 "/><path style=" stroke:none;fill-rule:nonzero;fill:#5d5d5d;fill-opacity:1;" d="M 301.964844 534.652344 L 330.539062 534.652344 L 330.539062 520.691406 L 301.964844 520.691406 Z M 301.964844 534.652344 "/><path style=" stroke:none;fill-rule:nonzero;fill:#5d5d5d;fill-opacity:1;" d="M 301.964844 488.605469 L 330.539062 488.605469 L 330.539062 499.808594 L 301.964844 499.808594 Z M 301.964844 488.605469 "/><path style=" stroke:none;fill-rule:nonzero;fill:#5d5d5d;fill-opacity:1;" d="M 269.882812 503.664062 L 298.453125 503.664062 L 298.453125 516.792969 L 269.882812 516.792969 Z M 269.882812 503.664062 "/><path style=" stroke:none;fill-rule:nonzero;fill:#5d5d5d;fill-opacity:1;" d="M 277.777344 474.738281 L 239.042969 474.738281 L 239.042969 484.738281 L 277.777344 484.738281 Z M 277.777344 474.738281 "/><path style=" stroke:none;fill-rule:nonzero;fill:#5d5d5d;fill-opacity:1;" d="M 259.613281 520.65625 L 201.480469 520.65625 C 200.171875 525.503906 198.882812 530.195312 197.59375 534.621094 L 298.453125 534.621094 L 298.453125 520.65625 Z M 259.613281 520.65625 "/><path style=" stroke:none;fill-rule:nonzero;fill:#5d5d5d;fill-opacity:1;" d="M 237.789062 488.605469 L 266.359375 488.605469 L 266.359375 499.808594 L 237.789062 499.808594 Z M 237.789062 488.605469 "/><g mask="url(#b2be317843)" transform="matrix(1,0,0,1,196,476)"><g clip-path="url(#394400ffdf)"><path style=" stroke:none;fill-rule:nonzero;fill:#5d5d5d;fill-opacity:1;" d="M 138.050781 29.933594 L 166.621094 29.933594 L 166.621094 42.917969 L 138.050781 42.917969 Z M 138.050781 29.933594 "/><path style=" stroke:none;fill-rule:nonzero;fill:#5d5d5d;fill-opacity:1;" d="M 255.773438 1.304688 L 217.042969 1.304688 L 217.042969 11.210938 L 255.773438 11.210938 Z M 255.773438 1.304688 "/><path style=" stroke:none;fill-rule:nonzero;fill:#5d5d5d;fill-opacity:1;" d="M 234.3125 15.035156 L 262.886719 15.035156 L 262.886719 26.109375 L 234.3125 26.109375 Z M 234.3125 15.035156 "/><path style=" stroke:none;fill-rule:nonzero;fill:#5d5d5d;fill-opacity:1;" d="M 266.398438 15.035156 L 294.96875 15.035156 L 294.96875 26.109375 L 266.398438 26.109375 Z M 266.398438 15.035156 "/><path style=" stroke:none;fill-rule:nonzero;fill:#5d5d5d;fill-opacity:1;" d="M 266.398438 29.933594 L 294.96875 29.933594 L 294.96875 42.917969 L 266.398438 42.917969 Z M 266.398438 29.933594 "/><path style=" stroke:none;fill-rule:nonzero;fill:#5d5d5d;fill-opacity:1;" d="M 212.273438 1.304688 L 173.550781 1.304688 L 173.550781 11.210938 L 212.28125 11.210938 Z M 212.273438 1.304688 "/><path style=" stroke:none;fill-rule:nonzero;fill:#5d5d5d;fill-opacity:1;" d="M 170.132812 15.035156 L 198.707031 15.035156 L 198.707031 26.109375 L 170.132812 26.109375 Z M 170.132812 15.035156 "/><path style=" stroke:none;fill-rule:nonzero;fill:#5d5d5d;fill-opacity:1;" d="M 170.132812 29.933594 L 198.707031 29.933594 L 198.707031 42.917969 L 170.132812 42.917969 Z M 170.132812 29.933594 "/><path style=" stroke:none;fill-rule:nonzero;fill:#5d5d5d;fill-opacity:1;" d="M 202.230469 29.933594 L 230.800781 29.933594 L 230.800781 42.917969 L 202.230469 42.917969 Z M 202.230469 29.933594 "/><path style=" stroke:none;fill-rule:nonzero;fill:#5d5d5d;fill-opacity:1;" d="M 202.230469 15.035156 L 230.800781 15.035156 L 230.800781 26.109375 L 202.230469 26.109375 Z M 202.230469 15.035156 "/><path style=" stroke:none;fill-rule:nonzero;fill:#5d5d5d;fill-opacity:1;" d="M 299.222656 1.304688 L 260.554688 1.304688 L 260.554688 11.210938 L 299.222656 11.210938 Z M 299.222656 1.304688 "/><path style=" stroke:none;fill-rule:nonzero;fill:#5d5d5d;fill-opacity:1;" d="M 234.3125 29.933594 L 262.886719 29.933594 L 262.886719 42.917969 L 234.3125 42.917969 Z M 234.3125 29.933594 "/><path style=" stroke:none;fill-rule:nonzero;fill:#5d5d5d;fill-opacity:1;" d="M 298.492188 42.917969 L 359.148438 42.917969 L 359.148438 15.035156 L 330.578125 15.035156 L 330.578125 29.933594 L 298.492188 29.933594 Z M 298.492188 42.917969 "/><path style=" stroke:none;fill-rule:nonzero;fill:#5d5d5d;fill-opacity:1;" d="M 38.273438 15.035156 L 14.171875 15.035156 C 13.097656 18.71875 12.023438 22.421875 11.054688 26.109375 L 38.273438 26.109375 Z M 38.273438 15.035156 "/><path style=" stroke:none;fill-rule:nonzero;fill:#5d5d5d;fill-opacity:1;" d="M 394.753906 26.109375 L 412.90625 26.109375 C 411.882812 22.433594 410.859375 18.742188 409.835938 15.035156 L 394.796875 15.035156 Z M 394.753906 26.109375 "/><path style=" stroke:none;fill-rule:nonzero;fill:#5d5d5d;fill-opacity:1;" d="M 386.226562 1.304688 L 347.558594 1.304688 L 347.558594 11.210938 L 386.226562 11.210938 Z M 386.226562 1.304688 "/><path style=" stroke:none;fill-rule:nonzero;fill:#5d5d5d;fill-opacity:1;" d="M 406.042969 1.304688 L 391.007812 1.304688 L 391.007812 11.210938 L 408.785156 11.210938 C 407.859375 7.914062 406.945312 4.605469 406.042969 1.304688 Z M 406.042969 1.304688 "/><path style=" stroke:none;fill-rule:nonzero;fill:#5d5d5d;fill-opacity:1;" d="M 298.492188 15.035156 L 327.0625 15.035156 L 327.0625 26.109375 L 298.492188 26.109375 Z M 298.492188 15.035156 "/><path style=" stroke:none;fill-rule:nonzero;fill:#5d5d5d;fill-opacity:1;" d="M 342.769531 1.304688 L 304.035156 1.304688 L 304.035156 11.210938 L 342.769531 11.210938 Z M 342.769531 1.304688 "/><path style=" stroke:none;fill-rule:nonzero;fill:#5d5d5d;fill-opacity:1;" d="M 394.753906 29.964844 L 362.660156 29.964844 L 362.660156 42.949219 L 417.503906 42.949219 C 416.355469 38.652344 415.164062 34.355469 413.960938 29.964844 Z M 394.753906 29.964844 "/><path style=" stroke:none;fill-rule:nonzero;fill:#5d5d5d;fill-opacity:1;" d="M 138.050781 15.035156 L 166.621094 15.035156 L 166.621094 26.109375 L 138.050781 26.109375 Z M 138.050781 15.035156 "/><path style=" stroke:none;fill-rule:nonzero;fill:#5d5d5d;fill-opacity:1;" d="M 298.492188 60.585938 L 327.0625 60.585938 L 327.0625 46.742188 L 298.492188 46.742188 Z M 298.492188 60.585938 "/><path style=" stroke:none;fill-rule:nonzero;fill:#5d5d5d;fill-opacity:1;" d="M 138.105469 60.585938 L 166.675781 60.585938 L 166.675781 46.742188 L 138.105469 46.742188 Z M 138.105469 60.585938 "/><path style=" stroke:none;fill-rule:nonzero;fill:#5d5d5d;fill-opacity:1;" d="M 222.746094 46.742188 L 170.113281 46.742188 L 170.113281 60.585938 L 262.863281 60.585938 L 262.863281 46.742188 Z M 222.746094 46.742188 "/><path style=" stroke:none;fill-rule:nonzero;fill:#5d5d5d;fill-opacity:1;" d="M 266.398438 60.585938 L 294.925781 60.585938 L 294.925781 46.742188 L 266.355469 46.742188 Z M 266.398438 60.585938 "/><g clip-rule="nonzero" clip-path="url(#a550d595a6)"><path style=" stroke:none;fill-rule:nonzero;fill:#5d5d5d;fill-opacity:1;" d="M 418.527344 46.742188 L 330.578125 46.742188 L 330.578125 60.585938 L 422.113281 60.585938 C 420.988281 56.070312 419.792969 51.453125 418.527344 46.742188 Z M 418.527344 46.742188 "/></g><path style=" stroke:none;fill-rule:nonzero;fill:#5d5d5d;fill-opacity:1;" d="M 38.273438 42.917969 L 70.359375 42.917969 L 70.359375 29.964844 L 10.015625 29.964844 C 8.824219 34.347656 7.664062 38.695312 6.511719 42.949219 Z M 38.273438 42.917969 "/><path style=" stroke:none;fill-rule:nonzero;fill:#5d5d5d;fill-opacity:1;" d="M 38.273438 1.304688 L 18.351562 1.304688 C 17.296875 4.570312 16.277344 7.871094 15.289062 11.210938 L 38.273438 11.210938 Z M 38.273438 1.304688 "/><path style=" stroke:none;fill-rule:nonzero;fill:#5d5d5d;fill-opacity:1;" d="M 362.660156 15.035156 L 391.230469 15.035156 L 391.230469 26.109375 L 362.660156 26.109375 Z M 362.660156 15.035156 "/><path style=" stroke:none;fill-rule:nonzero;fill:#5d5d5d;fill-opacity:1;" d="M 125.269531 1.304688 L 86.546875 1.304688 L 86.546875 11.210938 L 125.277344 11.210938 Z M 125.269531 1.304688 "/><path style=" stroke:none;fill-rule:nonzero;fill:#5d5d5d;fill-opacity:1;" d="M 73.882812 15.035156 L 102.453125 15.035156 L 102.453125 26.109375 L 73.882812 26.109375 Z M 73.882812 15.035156 "/><path style=" stroke:none;fill-rule:nonzero;fill:#5d5d5d;fill-opacity:1;" d="M 130.039062 11.210938 L 168.769531 11.210938 L 168.769531 1.304688 L 130.039062 1.304688 Z M 130.039062 11.210938 "/><path style=" stroke:none;fill-rule:nonzero;fill:#5d5d5d;fill-opacity:1;" d="M 105.964844 29.933594 L 134.539062 29.933594 L 134.539062 42.917969 L 105.964844 42.917969 Z M 105.964844 29.933594 "/><path style=" stroke:none;fill-rule:nonzero;fill:#5d5d5d;fill-opacity:1;" d="M 105.964844 60.585938 L 134.539062 60.585938 L 134.539062 46.742188 L 105.964844 46.742188 Z M 105.964844 60.585938 "/><path style=" stroke:none;fill-rule:nonzero;fill:#5d5d5d;fill-opacity:1;" d="M 105.964844 15.035156 L 134.539062 15.035156 L 134.539062 26.109375 L 105.964844 26.109375 Z M 105.964844 15.035156 "/><path style=" stroke:none;fill-rule:nonzero;fill:#5d5d5d;fill-opacity:1;" d="M 73.882812 29.933594 L 102.453125 29.933594 L 102.453125 42.917969 L 73.882812 42.917969 Z M 73.882812 29.933594 "/><path style=" stroke:none;fill-rule:nonzero;fill:#5d5d5d;fill-opacity:1;" d="M 81.777344 1.304688 L 43.042969 1.304688 L 43.042969 11.210938 L 81.777344 11.210938 Z M 81.777344 1.304688 "/><path style=" stroke:none;fill-rule:nonzero;fill:#5d5d5d;fill-opacity:1;" d="M 63.613281 46.742188 L 5.480469 46.742188 C 4.171875 51.53125 2.882812 56.183594 1.59375 60.585938 L 102.453125 60.585938 L 102.453125 46.742188 Z M 63.613281 46.742188 "/><path style=" stroke:none;fill-rule:nonzero;fill:#5d5d5d;fill-opacity:1;" d="M 41.789062 15.035156 L 70.359375 15.035156 L 70.359375 26.109375 L 41.789062 26.109375 Z M 41.789062 15.035156 "/></g><mask id="b2be317843"><g filter="url(#2be8bc1067)"><rect x="0" width="810" y="0" height="809.999993" style="fill:#000000;fill-opacity:0.3;stroke:none;"/></g></mask></g><g mask="url(#37875764f4)" transform="matrix(1,0,0,1,289,216)"><g clip-path="url(#87a2c9489e)"><g clip-rule="nonzero" clip-path="url(#1845a9b5c5)"><path style=" stroke:none;fill-rule:nonzero;fill:#5d5d5d;fill-opacity:1;" d="M 313.085938 5.816406 L 313.085938 218.621094 C 313.085938 219.113281 312.992188 219.589844 312.804688 220.046875 C 312.613281 220.503906 312.34375 220.90625 311.996094 221.257812 C 311.644531 221.605469 311.242188 221.875 310.785156 222.0625 C 310.328125 222.253906 309.855469 222.347656 309.359375 222.347656 L 1.976562 222.347656 C 82.828125 217.976562 164.609375 222.746094 245.386719 215.332031 C 263.539062 213.667969 283.96875 210.027344 294.03125 194.828125 C 299.519531 186.558594 300.832031 176.277344 301.863281 166.40625 C 307.601562 111.761719 309.527344 56.980469 307.640625 2.066406 L 309.339844 2.066406 C 309.835938 2.0625 310.316406 2.15625 310.777344 2.347656 C 311.238281 2.535156 311.644531 2.804688 311.996094 3.15625 C 312.347656 3.511719 312.617188 3.917969 312.808594 4.378906 C 312.996094 4.839844 313.089844 5.316406 313.085938 5.816406 Z M 313.085938 5.816406 "/></g></g><mask id="37875764f4"><g filter="url(#2be8bc1067)"><rect x="0" width="810" y="0" height="809.999993" style="fill:#000000;fill-opacity:0.15;stroke:none;"/></g></mask></g><g mask="url(#4dabbeadde)" transform="matrix(1,0,0,1,213,222)"><g clip-path="url(#3a5ae5c642)"><g clip-rule="nonzero" clip-path="url(#dd3d04c474)"><path style=" stroke:none;fill-rule:nonzero;fill:#ffffff;fill-opacity:1;" d="M 1.167969 96.753906 L 1.167969 13.132812 C 1.164062 12.429688 1.230469 11.730469 1.363281 11.039062 C 1.5 10.34375 1.699219 9.671875 1.964844 9.019531 C 2.230469 8.367188 2.558594 7.746094 2.945312 7.15625 C 3.332031 6.566406 3.773438 6.019531 4.269531 5.519531 C 4.761719 5.015625 5.300781 4.566406 5.882812 4.167969 C 6.46875 3.773438 7.082031 3.433594 7.730469 3.160156 C 8.378906 2.882812 9.050781 2.671875 9.742188 2.527344 C 10.429688 2.382812 11.128906 2.304688 11.832031 2.296875 L 206.421875 0.589844 C 160.007812 15.960938 123.714844 23.488281 97.546875 27.550781 C 78.375 30.523438 58.148438 32.652344 47.582031 48.226562 C 38.042969 62.265625 42.820312 77.6875 30.621094 88.667969 C 21.746094 96.636719 9.449219 97.261719 1.167969 96.753906 Z M 1.167969 96.753906 "/></g></g><mask id="4dabbeadde"><g filter="url(#2be8bc1067)"><rect x="0" width="810" y="0" height="809.999993" style="fill:#000000;fill-opacity:0.09;stroke:none;"/></g></mask></g><g mask="url(#d6841c1d03)" transform="matrix(1,0,0,1,368,544)"><g clip-path="url(#6078464545)"><path style=" stroke:none;fill-rule:nonzero;fill:#5d5d5d;fill-opacity:1;" d="M 77.371094 38.730469 L 1.324219 38.730469 C 24.445312 36.914062 47.566406 34.980469 70.679688 32.929688 C 72.238281 32.792969 73.96875 32.578125 74.976562 31.394531 C 75.988281 30.214844 75.988281 28.28125 75.816406 26.625 C 74.921875 18.167969 73.582031 9.785156 71.785156 1.46875 C 72.5 1.566406 73.125 1.855469 73.667969 2.328125 C 74.207031 2.800781 74.574219 3.386719 74.761719 4.082031 L 81.207031 34.929688 C 81.648438 36.917969 79.8125 38.730469 77.371094 38.730469 Z M 77.371094 38.730469 "/></g><mask id="d6841c1d03"><g filter="url(#2be8bc1067)"><rect x="0" width="810" y="0" height="809.999993" style="fill:#000000;fill-opacity:0.15;stroke:none;"/></g></mask></g><g mask="url(#4203f63c81)" transform="matrix(1,0,0,1,351,547)"><g clip-path="url(#12585e3f45)"><g clip-rule="nonzero" clip-path="url(#34d0ede163)"><path style=" stroke:none;fill-rule:nonzero;fill:#ffffff;fill-opacity:1;" d="M 0.835938 18.039062 C 1.839844 13.4375 2.835938 8.832031 3.824219 4.226562 C 3.917969 3.773438 4.082031 3.347656 4.324219 2.949219 C 4.5625 2.554688 4.863281 2.207031 5.222656 1.914062 C 5.582031 1.621094 5.976562 1.394531 6.414062 1.238281 C 6.851562 1.085938 7.300781 1.003906 7.765625 1.003906 L 48.925781 1.003906 C 39.464844 2.746094 23.277344 4.226562 18.324219 6.792969 C 15.597656 8.203125 15.476562 14.839844 9.335938 17.996094 C 4.222656 20.695312 2.769531 20.1875 0.835938 18.039062 Z M 0.835938 18.039062 "/></g></g><mask id="4203f63c81"><g filter="url(#2be8bc1067)"><rect x="0" width="810" y="0" height="809.999993" style="fill:#000000;fill-opacity:0.05;stroke:none;"/></g></mask></g><g mask="url(#99d90b9b7b)" transform="matrix(1,0,0,1,164,516)"><g clip-path="url(#c725122fb6)"><g clip-rule="nonzero" clip-path="url(#54f16f86ff)"><path style=" stroke:none;fill-rule:nonzero;fill:#ffffff;fill-opacity:1;" d="M 20.695312 0.800781 C 13.433594 21.996094 8.382812 43.1875 1.121094 64.390625 C 1.03125 64.679688 0.972656 64.976562 0.953125 65.28125 C 0.933594 65.585938 0.949219 65.886719 1 66.1875 C 1.050781 66.488281 1.136719 66.777344 1.257812 67.058594 C 1.382812 67.335938 1.535156 67.597656 1.71875 67.839844 C 1.902344 68.082031 2.113281 68.300781 2.347656 68.492188 C 2.585938 68.6875 2.84375 68.847656 3.117188 68.976562 C 3.390625 69.109375 3.679688 69.203125 3.976562 69.265625 C 4.277344 69.328125 4.578125 69.351562 4.882812 69.34375 L 120.167969 69.34375 C 109.261719 64.371094 97.859375 61.183594 85.957031 59.78125 C 66.921875 57.632812 53.488281 61.136719 30.273438 55.292969 C 27.171875 54.507812 24.472656 53.714844 22.304688 53.015625 C 21.914062 52.898438 21.554688 52.71875 21.226562 52.480469 C 20.898438 52.242188 20.617188 51.957031 20.382812 51.621094 C 20.148438 51.289062 19.976562 50.929688 19.863281 50.539062 C 19.75 50.144531 19.707031 49.746094 19.726562 49.339844 C 20.800781 33.132812 19.628906 16.96875 20.695312 0.800781 Z M 20.695312 0.800781 "/></g></g><mask id="99d90b9b7b"><g filter="url(#2be8bc1067)"><rect x="0" width="810" y="0" height="809.999993" style="fill:#000000;fill-opacity:0.06;stroke:none;"/></g></mask></g></g></svg>