<svg class="w-6 h-6 text-white" aria-hidden="true" xmlns="http://www.w3.org/2000/svg" width="24" height="24" fill="currentColor" viewBox="0 0 24 24">
  <path d="M4.799 6.4c0-.2-.072-.384-.2-.528L3.08 4.016v-.4h6.32l4.872 10.656L18.528 4h6.112v.4l-1.44 1.376a.464.464 0 0 0-.176.448v13.728a.464.464 0 0 0 .176.448l1.408 1.376v.4h-8.8v-.4l1.456-1.408c.144-.144.144-.184.144-.448V8.928l-4.064 10.272h-.552L7.088 8.928v8.464c-.04.312.056.624.256.864l1.888 2.288v.4H3v-.4l1.888-2.288a1.104 1.104 0 0 0 .272-.864V6.4Z"/>
</svg>
